HIERARCHY
ROOT Hips
{
	OFFSET -0.001795 -0.223333 0.028219
	CHANNELS 6 Xposition Yposition Zposition Zrotation Yrotation Xrotation 
	JOINT LeftUpLeg
	{
		OFFSET 0.069520 -0.091406 -0.006815
		CHANNELS 3 Zrotation Yrotation Xrotation
		JOINT LeftLeg
		{
			OFFSET 0.034277 -0.375199 -0.004496
			CHANNELS 3 Zrotation Yrotation Xrotation
			JOINT LeftFoot
			{
				OFFSET -0.013596 -0.397961 -0.043693
				CHANNELS 3 Zrotation Yrotation Xrotation
				JOINT LeftToe
				{
					OFFSET 0.026358 -0.055791 0.119288
					CHANNELS 3 Zrotation Yrotation Xrotation
					End Site
					{
						OFFSET 0.000000 0.000000 0.000000
					}
				}
			}
		}
	}
	JOINT RightUpLeg
	{
		OFFSET -0.067670 -0.090522 -0.004320
		CHANNELS 3 Zrotation Yrotation Xrotation
		JOINT RightLeg
		{
			OFFSET -0.038290 -0.382569 -0.008850
			CHANNELS 3 Zrotation Yrotation Xrotation
			JOINT RightFoot
			{
				OFFSET 0.015774 -0.398415 -0.042312
				CHANNELS 3 Zrotation Yrotation Xrotation
				JOINT RightToe
				{
					OFFSET -0.025372 -0.048144 0.123348
					CHANNELS 3 Zrotation Yrotation Xrotation
					End Site
					{
						OFFSET 0.000000 0.000000 0.000000
					}
				}
			}
		}
	}
	JOINT Spine
	{
		OFFSET -0.002533 0.108963 -0.026696
		CHANNELS 3 Zrotation Yrotation Xrotation
		JOINT Spine1
		{
			OFFSET 0.005487 0.135180 0.001092
			CHANNELS 3 Zrotation Yrotation Xrotation
			JOINT Spine2
			{
				OFFSET 0.001457 0.052922 0.025425
				CHANNELS 3 Zrotation Yrotation Xrotation
				JOINT Neck
				{
					OFFSET -0.002778 0.213870 -0.042857
					CHANNELS 3 Zrotation Yrotation Xrotation
					JOINT Head
					{
						OFFSET 0.005152 0.064970 0.051349
						CHANNELS 3 Zrotation Yrotation Xrotation
						End Site
						{
							OFFSET 0.000000 0.000000 0.000000
						}
					}
				}
				JOINT LeftShoulder
				{
					OFFSET 0.078845 0.121749 -0.034090
					CHANNELS 3 Zrotation Yrotation Xrotation
					JOINT LeftArm
					{
						OFFSET 0.090977 0.030469 -0.008868
						CHANNELS 3 Zrotation Yrotation Xrotation
						JOINT LeftForeArm
						{
							OFFSET 0.259612 -0.012772 -0.027456
							CHANNELS 3 Zrotation Yrotation Xrotation
							JOINT LeftHand
							{
								OFFSET 0.249234 0.008986 -0.001171
								CHANNELS 3 Zrotation Yrotation Xrotation
								End Site
								{
									OFFSET 0.000000 0.000000 0.000000
								}
							}
						}
					}
				}
				JOINT RightShoulder
				{
					OFFSET -0.081759 0.118833 -0.038615
					CHANNELS 3 Zrotation Yrotation Xrotation
					JOINT RightArm
					{
						OFFSET -0.096012 0.032551 -0.009143
						CHANNELS 3 Zrotation Yrotation Xrotation
						JOINT RightForeArm
						{
							OFFSET -0.253742 -0.013329 -0.021401
							CHANNELS 3 Zrotation Yrotation Xrotation
							JOINT RightHand
							{
								OFFSET -0.255298 0.007772 -0.005559
								CHANNELS 3 Zrotation Yrotation Xrotation
								End Site
								{
									OFFSET 0.000000 0.000000 0.000000
								}
							}
						}
					}
				}
			}
		}
	}
}
MOTION
Frames: 5
Frame Time: 0.050000
0.021814 0.948819 0.136859 -1.752998 -3.568385 4.465117 1.379455 -0.825200 -10.468414 -5.111051 0.943403 17.308846 4.063466 9.377055 3.637636 0.000000 0.000000 0.000000 -0.276382 1.030086 -10.245986 2.509777 0.212294 17.843945 -4.262454 -12.649651 8.108521 0.000000 0.000000 0.000000 -2.915000 -0.060136 9.695264 4.388827 -0.695225 -20.956473 0.632105 2.580261 28.970655 0.397854 1.557245 -28.369956 0.000000 0.000000 0.000000 -12.056827 -8.644669 3.510306 -15.744472 -39.543616 0.151499 118.717891 -49.453073 -70.244455 0.000000 0.000000 0.000000 -2.647208 15.834029 5.121746 13.992030 34.193601 -0.046233 -104.523770 43.446882 -49.093087 0.000000 0.000000 0.000000 
0.023034 0.953596 0.137469 -1.630419 -3.297562 5.359057 1.121440 -0.889645 -11.018167 -4.612055 0.765017 16.005119 3.659228 8.847491 4.741793 0.000000 0.000000 0.000000 -0.313810 1.032777 -10.294122 2.171062 0.221617 15.876589 -4.337223 -12.969663 9.034616 0.000000 0.000000 0.000000 -2.852881 -0.057250 9.399723 4.406434 -0.683642 -20.981892 0.746345 3.033664 28.735646 0.165998 1.828104 -29.123725 0.000000 0.000000 0.000000 -11.723887 -8.708588 3.418678 -15.000162 -39.097195 -0.041533 118.574183 -49.273369 -70.220955 0.000000 0.000000 0.000000 -3.771240 16.300481 5.125988 12.040406 34.088460 -0.347424 -99.710649 41.590117 -43.324040 0.000000 0.000000 0.000000 
0.024202 0.957701 0.138708 -1.359796 -3.051268 5.943301 0.625980 -0.932566 -11.038461 -4.129612 0.604079 14.399507 3.260645 8.434968 6.198180 0.000000 0.000000 0.000000 -0.274582 1.018897 -10.151978 1.420978 0.326816 14.146844 -4.212952 -12.972215 10.381025 0.000000 0.000000 0.000000 -2.970203 -0.037952 9.240121 4.382512 -0.668965 -20.964117 0.932186 3.093838 28.408179 -0.047126 1.994864 -29.485591 0.000000 0.000000 0.000000 -10.933672 -8.359054 3.193610 -14.424354 -38.762693 -0.165475 118.554627 -48.241564 -69.083206 0.000000 0.000000 0.000000 -5.163867 16.307943 4.944659 10.449181 34.918974 -0.581204 -95.819069 39.258290 -38.193636 0.000000 0.000000 0.000000 
0.025010 0.960631 0.140837 -1.178959 -2.985960 6.186383 0.099408 -0.926754 -10.487006 -3.359417 0.401944 12.741715 2.669396 7.458916 6.631714 0.000000 0.000000 0.000000 -0.225361 0.932290 -9.293629 0.701254 0.396600 12.074968 -4.149151 -13.026375 11.363123 0.000000 0.000000 0.000000 -3.000408 -0.028627 8.924474 4.295827 -0.623182 -21.261141 1.027470 3.370713 28.356031 0.114961 1.996996 -30.253548 0.000000 0.000000 0.000000 -9.995446 -7.981089 2.957750 -14.444070 -39.013620 -0.145093 118.096846 -47.177294 -67.406080 0.000000 0.000000 0.000000 -6.086678 15.984188 4.716251 9.739769 35.528845 -0.667745 -93.327950 37.078726 -34.330035 0.000000 0.000000 0.000000 
0.025202 0.962784 0.143350 -1.035268 -2.605850 6.296379 -0.185239 -0.865197 -9.536930 -2.817408 0.267461 11.039917 2.291375 6.891844 7.013552 0.000000 0.000000 0.000000 -0.057659 0.837047 -8.317902 0.101799 0.419892 10.077846 -4.182819 -13.208810 12.292362 0.000000 0.000000 0.000000 -3.108604 -0.016935 8.790867 4.361173 -0.621843 -21.441794 1.125265 3.527333 28.390472 0.282077 2.000731 -30.834351 0.000000 0.000000 0.000000 -9.999572 -7.671872 2.759411 -14.382322 -39.325495 -0.147476 118.676369 -46.682139 -67.532209 0.000000 0.000000 0.000000 -6.173592 15.590884 4.580754 9.976157 36.288517 -0.571730 -92.933977 35.782754 -32.525016 0.000000 0.000000 0.000000 
